# xmcd CD database file
#
# Track frame offsets:
#	150
#	13125
#	14814
#	27338
#	44222
#	58398
#	77681
#	93448
#	111265
#	124663
#	138240
#	151497
#	165675
#	177094
#	185753
#	203174
#	216326
#
# Disc length: 3038 seconds
#
# Revision: 0
# Processed by: cddbd v1.5.2PL0 Copyright (c) Steve Scherf et al.
# Submitted via: CDex 1.70beta2
#
DISCID=fc0bdc11
DTITLE=Gerry Mulligan - One Man One Sax CD02 - Swing House
DYEAR=1900
DGENRE=Jazz
TTITLE0=Gerry Mulligan Quartet - Uter Chaos Part 1
TTITLE1=Gerry Mulligan Quartet - Uter Chaos Part 2
TTITLE2=Gerry Mulligan Quartet - Limelight
TTITLE3=Lee Konitz and Gerry Mulligan Quartet - Too Marvelous For Words
TTITLE4=Lee Konitz and Gerry Mulligan Quartet - Lover Man
TTITLE5=Lee Konitz and Gerry Mulligan Quartet - I'll Remember April
TTITLE6=Lee Konitz and Gerry Mulligan Quartet - These Foolish Things
TTITLE7=Lee Konitz and Gerry Mulligan Quartet - All The Things You Are
TTITLE8=Lee Konitz and Gerry Mulligan Quartet - Almost Like Being In Love
TTITLE9=Lee Konitz and Gerry Mulligan Quartet - Sextet
TTITLE10=Lee Konitz and Gerry Mulligan Quartet - Broadway
TTITLE11=Lee Konitz and Gerry Mulligan Quartet - I Can't Believe That You're In Love With Me
TTITLE12=Lee Konitz and Gerry Mulligan Quartet - Lady Be Good
TTITLE13=Lee Konitz and Gerry Mulligan Quartet - Lady Be Good (Alternate Track)
TTITLE14=Gerry Mulligan Quartet - Carson City Stage
TTITLE15=Gerry Mulligan Quartet - Motel
TTITLE16=Gerry Mulligan Quartet - Swing House
EXTD=
EXTT0=
EXTT1=
EXTT2=
EXTT3=
EXTT4=
EXTT5=
EXTT6=
EXTT7=
EXTT8=
EXTT9=
EXTT10=
EXTT11=
EXTT12=
EXTT13=
EXTT14=
EXTT15=
EXTT16=
PLAYORDER=
